<?xml version="1.0" encoding="UTF-8"?>
<!--Generator: Apple Native CoreSVG 175.5-->
<!DOCTYPE svg
PUBLIC "-//W3C//DTD SVG 1.1//EN"
       "http://www.w3.org/Graphics/SVG/1.1/DTD/svg11.dtd">
<svg version="1.1" xmlns="http://www.w3.org/2000/svg" xmlns:xlink="http://www.w3.org/1999/xlink" width="15.8227" height="15.8324">
 <g>
  <rect height="15.8324" opacity="0" width="15.8227" x="0" y="0"/>
  <path d="M0 7.91133C0 8.27481 0.303516 8.56856 0.657228 8.56856L7.2541 8.56856L7.2541 15.1624C7.2541 15.5191 7.54785 15.8227 7.91133 15.8227C8.27481 15.8227 8.5753 15.5191 8.5753 15.1624L8.5753 8.56856L15.1624 8.56856C15.5191 8.56856 15.8227 8.27481 15.8227 7.91133C15.8227 7.54785 15.5191 7.24434 15.1624 7.24434L8.5753 7.24434L8.5753 0.657228C8.5753 0.303516 8.27481 0 7.91133 0C7.54785 0 7.2541 0.303516 7.2541 0.657228L7.2541 7.24434L0.657228 7.24434C0.303516 7.24434 0 7.54785 0 7.91133Z" fill="#000000" fill-opacity="0.85"/>
 </g>
</svg>
