<?xml version="1.0" encoding="UTF-8"?>
<!--Generator: Apple Native CoreSVG 175.5-->
<!DOCTYPE svg
PUBLIC "-//W3C//DTD SVG 1.1//EN"
       "http://www.w3.org/Graphics/SVG/1.1/DTD/svg11.dtd">
<svg version="1.1" xmlns="http://www.w3.org/2000/svg" xmlns:xlink="http://www.w3.org/1999/xlink" width="7.69512" height="15.7188">
 <g>
  <rect height="15.7188" opacity="0" width="7.69512" x="0" y="0"/>
  <path d="M0.633302 15.7188C0.990041 15.7188 1.27334 15.4489 1.27334 15.0989L1.27334 0.63633C1.27334 0.286329 0.990041 0.00976562 0.633302 0.00976562C0.283301 0.00976562 0 0.286329 0 0.63633L0 15.0989C0 15.4489 0.283301 15.7188 0.633302 15.7188ZM7.05508 15.7188C7.40508 15.7188 7.69512 15.4489 7.69512 15.0989L7.69512 0.63633C7.69512 0.286329 7.40508 0.00976562 7.05508 0.00976562C6.70508 0.00976562 6.42178 0.286329 6.42178 0.63633L6.42178 15.0989C6.42178 15.4489 6.70508 15.7188 7.05508 15.7188Z" fill="#000000" fill-opacity="0.85"/>
 </g>
</svg>
